# WaveFront *.obj file (generated by Cinema 4D)

mtllib ./test.mtl

v 0.000000 -71.016428 111.919388
v 0.000000 71.016428 111.919388
v 27.176810 -65.610624 111.919388
v 25.108099 -65.610624 122.319503
v 19.216907 -65.610624 131.136295
v 10.400115 -65.610624 137.027487
v 0.000000 -65.610624 139.096199
v -10.400115 -65.610624 137.027487
v -19.216907 -65.610624 131.136295
v -25.108099 -65.610624 122.319503
v -27.176810 -65.610624 111.919388
v -25.108099 -65.610624 101.519273
v -19.216907 -65.610624 92.702481
v -10.400115 -65.610624 86.811289
v -0.000000 -65.610624 84.742578
v 10.400115 -65.610624 86.811289
v 19.216907 -65.610624 92.702481
v 25.108099 -65.610624 101.519273
v 50.216198 -50.216198 111.919388
v 46.393717 -50.216198 131.136295
v 35.508214 -50.216198 147.427602
v 19.216907 -50.216198 158.313106
v 0.000000 -50.216198 162.135586
v -19.216907 -50.216198 158.313106
v -35.508214 -50.216198 147.427602
v -46.393717 -50.216198 131.136295
v -50.216198 -50.216198 111.919388
v -46.393717 -50.216198 92.702481
v -35.508214 -50.216198 76.411174
v -19.216907 -50.216198 65.525671
v -0.000000 -50.216198 61.703190
v 19.216907 -50.216198 65.525671
v 35.508214 -50.216198 76.411174
v 46.393717 -50.216198 92.702481
v 65.610624 -27.176810 111.919388
v 60.616313 -27.176810 137.027487
v 46.393717 -27.176810 158.313106
v 25.108099 -27.176810 172.535701
v 0.000000 -27.176810 177.530013
v -25.108099 -27.176810 172.535701
v -46.393717 -27.176810 158.313106
v -60.616313 -27.176810 137.027487
v -65.610624 -27.176810 111.919388
v -60.616313 -27.176810 86.811289
v -46.393717 -27.176810 65.525671
v -25.108099 -27.176810 51.303075
v -0.000000 -27.176810 46.308764
v 25.108099 -27.176810 51.303075
v 46.393717 -27.176810 65.525671
v 60.616313 -27.176810 86.811289
v 71.016428 0.000000 111.919388
v 65.610624 0.000000 139.096199
v 50.216198 0.000000 162.135586
v 27.176810 0.000000 177.530013
v 0.000000 0.000000 182.935816
v -27.176810 0.000000 177.530013
v -50.216198 0.000000 162.135586
v -65.610624 0.000000 139.096199
v -71.016428 0.000000 111.919388
v -65.610624 0.000000 84.742578
v -50.216198 0.000000 61.703190
v -27.176810 0.000000 46.308764
v -0.000000 0.000000 40.902960
v 27.176810 0.000000 46.308764
v 50.216198 0.000000 61.703190
v 65.610624 0.000000 84.742578
v 65.610624 27.176810 111.919388
v 60.616313 27.176810 137.027487
v 46.393717 27.176810 158.313106
v 25.108099 27.176810 172.535701
v 0.000000 27.176810 177.530013
v -25.108099 27.176810 172.535701
v -46.393717 27.176810 158.313106
v -60.616313 27.176810 137.027487
v -65.610624 27.176810 111.919388
v -60.616313 27.176810 86.811289
v -46.393717 27.176810 65.525671
v -25.108099 27.176810 51.303075
v -0.000000 27.176810 46.308764
v 25.108099 27.176810 51.303075
v 46.393717 27.176810 65.525671
v 60.616313 27.176810 86.811289
v 50.216198 50.216198 111.919388
v 46.393717 50.216198 131.136295
v 35.508214 50.216198 147.427602
v 19.216907 50.216198 158.313106
v 0.000000 50.216198 162.135586
v -19.216907 50.216198 158.313106
v -35.508214 50.216198 147.427602
v -46.393717 50.216198 131.136295
v -50.216198 50.216198 111.919388
v -46.393717 50.216198 92.702481
v -35.508214 50.216198 76.411174
v -19.216907 50.216198 65.525671
v -0.000000 50.216198 61.703190
v 19.216907 50.216198 65.525671
v 35.508214 50.216198 76.411174
v 46.393717 50.216198 92.702481
v 27.176810 65.610624 111.919388
v 25.108099 65.610624 122.319503
v 19.216907 65.610624 131.136295
v 10.400115 65.610624 137.027487
v 0.000000 65.610624 139.096199
v -10.400115 65.610624 137.027487
v -19.216907 65.610624 131.136295
v -25.108099 65.610624 122.319503
v -27.176810 65.610624 111.919388
v -25.108099 65.610624 101.519273
v -19.216907 65.610624 92.702481
v -10.400115 65.610624 86.811289
v -0.000000 65.610624 84.742578
v 10.400115 65.610624 86.811289
v 19.216907 65.610624 92.702481
v 25.108099 65.610624 101.519273
# 114 vertices

vn 0.382195 -0.924082 -0.000000
vn 0.706585 -0.707629 0.000000
vn 0.652799 -0.707629 0.270398
vn 0.353102 -0.924082 0.146260
vn 0.499631 -0.707629 0.499631
vn 0.270252 -0.924082 0.270253
vn 0.270398 -0.707629 0.652799
vn 0.146260 -0.924082 0.353102
vn -0.000000 -0.707629 0.706585
vn -0.000000 -0.924082 0.382195
vn -0.270398 -0.707629 0.652799
vn -0.146260 -0.924082 0.353102
vn -0.499631 -0.707629 0.499631
vn -0.270253 -0.924082 0.270253
vn -0.652799 -0.707629 0.270398
vn -0.353102 -0.924082 0.146260
vn -0.706585 -0.707629 0.000000
vn -0.382195 -0.924082 0.000000
vn -0.652799 -0.707629 -0.270398
vn -0.353102 -0.924082 -0.146260
vn -0.499631 -0.707629 -0.499631
vn -0.270253 -0.924082 -0.270253
vn -0.270398 -0.707629 -0.652799
vn -0.146260 -0.924082 -0.353102
vn 0.000000 -0.707629 -0.706585
vn 0.000000 -0.924082 -0.382195
vn 0.270398 -0.707629 -0.652799
vn 0.146260 -0.924082 -0.353102
vn 0.499631 -0.707629 -0.499631
vn 0.270253 -0.924082 -0.270252
vn 0.652799 -0.707629 -0.270398
vn 0.353102 -0.924082 -0.146260
vn 0.923682 -0.383160 0.000000
vn 0.853371 -0.383160 0.353478
vn 0.653142 -0.383160 0.653142
vn 0.353478 -0.383160 0.853371
vn -0.000000 -0.383160 0.923682
vn -0.353478 -0.383160 0.853371
vn -0.653142 -0.383160 0.653142
vn -0.853371 -0.383160 0.353478
vn -0.923682 -0.383160 0.000000
vn -0.853371 -0.383160 -0.353478
vn -0.653142 -0.383160 -0.653142
vn -0.353478 -0.383160 -0.853371
vn 0.000000 -0.383160 -0.923682
vn 0.353478 -0.383160 -0.853371
vn 0.653142 -0.383160 -0.653142
vn 0.853371 -0.383160 -0.353478
vn 1.000000 -0.000000 0.000000
vn 0.923880 0.000000 0.382683
vn 0.707107 0.000000 0.707107
vn 0.382683 0.000000 0.923880
vn 0.000000 0.000000 1.000000
vn -0.382683 0.000000 0.923880
vn -0.707107 -0.000000 0.707107
vn -0.923880 0.000000 0.382683
vn -1.000000 0.000000 0.000000
vn -0.923880 0.000000 -0.382683
vn -0.707107 -0.000000 -0.707107
vn -0.382683 0.000000 -0.923880
vn -0.000000 0.000000 -1.000000
vn 0.382683 -0.000000 -0.923880
vn 0.707107 -0.000000 -0.707107
vn 0.923880 0.000000 -0.382683
vn 0.923682 0.383160 0.000000
vn 0.853371 0.383160 0.353478
vn 0.653142 0.383160 0.653142
vn 0.353478 0.383160 0.853371
vn 0.000000 0.383160 0.923682
vn -0.353478 0.383160 0.853371
vn -0.653142 0.383160 0.653142
vn -0.853371 0.383160 0.353478
vn -0.923682 0.383160 0.000000
vn -0.853371 0.383160 -0.353478
vn -0.653142 0.383160 -0.653142
vn -0.353478 0.383160 -0.853371
vn -0.000000 0.383160 -0.923682
vn 0.353478 0.383160 -0.853371
vn 0.653142 0.383160 -0.653142
vn 0.853371 0.383160 -0.353478
vn 0.706585 0.707629 0.000000
vn 0.652799 0.707629 0.270398
vn 0.499631 0.707629 0.499631
vn 0.270398 0.707629 0.652799
vn 0.000000 0.707629 0.706585
vn -0.270398 0.707629 0.652799
vn -0.499631 0.707629 0.499631
vn -0.652799 0.707629 0.270398
vn -0.706585 0.707629 -0.000000
vn -0.652799 0.707629 -0.270398
vn -0.499631 0.707629 -0.499631
vn -0.270398 0.707629 -0.652799
vn -0.000000 0.707629 -0.706585
vn 0.270398 0.707629 -0.652799
vn 0.499631 0.707629 -0.499631
vn 0.652799 0.707629 -0.270398
vn 0.382195 0.924082 0.000000
vn 0.353102 0.924082 0.146260
vn 0.270253 0.924082 0.270253
vn 0.146260 0.924082 0.353102
vn 0.000000 0.924082 0.382195
vn -0.146260 0.924082 0.353102
vn -0.270252 0.924082 0.270253
vn -0.353102 0.924082 0.146260
vn -0.382195 0.924082 -0.000000
vn -0.353102 0.924082 -0.146260
vn -0.270253 0.924082 -0.270253
vn -0.146260 0.924082 -0.353102
vn 0.000000 0.924082 -0.382195
vn 0.146260 0.924082 -0.353102
vn 0.270253 0.924082 -0.270253
vn 0.353102 0.924082 -0.146260
vn -0.000000 -1.000000 0.000000
vn -0.000000 1.000000 0.000000
# 114 normals

vt 0.000000 0.125000 0.000000
vt 0.000000 0.250000 0.000000
vt 0.062500 0.250000 0.000000
vt 0.062500 0.125000 0.000000
vt 0.125000 0.250000 0.000000
vt 0.125000 0.125000 0.000000
vt 0.187500 0.250000 0.000000
vt 0.187500 0.125000 0.000000
vt 0.250000 0.250000 0.000000
vt 0.250000 0.125000 0.000000
vt 0.312500 0.250000 0.000000
vt 0.312500 0.125000 0.000000
vt 0.375000 0.250000 0.000000
vt 0.375000 0.125000 0.000000
vt 0.437500 0.250000 0.000000
vt 0.437500 0.125000 0.000000
vt 0.500000 0.250000 0.000000
vt 0.500000 0.125000 0.000000
vt 0.562500 0.250000 0.000000
vt 0.562500 0.125000 0.000000
vt 0.625000 0.250000 0.000000
vt 0.625000 0.125000 0.000000
vt 0.687500 0.250000 0.000000
vt 0.687500 0.125000 0.000000
vt 0.750000 0.250000 0.000000
vt 0.750000 0.125000 0.000000
vt 0.812500 0.250000 0.000000
vt 0.812500 0.125000 0.000000
vt 0.875000 0.250000 0.000000
vt 0.875000 0.125000 0.000000
vt 0.937500 0.250000 0.000000
vt 0.937500 0.125000 0.000000
vt 1.000000 0.250000 0.000000
vt 1.000000 0.125000 0.000000
vt 0.000000 0.375000 0.000000
vt 0.062500 0.375000 0.000000
vt 0.125000 0.375000 0.000000
vt 0.187500 0.375000 0.000000
vt 0.250000 0.375000 0.000000
vt 0.312500 0.375000 0.000000
vt 0.375000 0.375000 0.000000
vt 0.437500 0.375000 0.000000
vt 0.500000 0.375000 0.000000
vt 0.562500 0.375000 0.000000
vt 0.625000 0.375000 0.000000
vt 0.687500 0.375000 0.000000
vt 0.750000 0.375000 0.000000
vt 0.812500 0.375000 0.000000
vt 0.875000 0.375000 0.000000
vt 0.937500 0.375000 0.000000
vt 1.000000 0.375000 0.000000
vt 0.000000 0.500000 0.000000
vt 0.062500 0.500000 0.000000
vt 0.125000 0.500000 0.000000
vt 0.187500 0.500000 0.000000
vt 0.250000 0.500000 0.000000
vt 0.312500 0.500000 0.000000
vt 0.375000 0.500000 0.000000
vt 0.437500 0.500000 0.000000
vt 0.500000 0.500000 0.000000
vt 0.562500 0.500000 0.000000
vt 0.625000 0.500000 0.000000
vt 0.687500 0.500000 0.000000
vt 0.750000 0.500000 0.000000
vt 0.812500 0.500000 0.000000
vt 0.875000 0.500000 0.000000
vt 0.937500 0.500000 0.000000
vt 1.000000 0.500000 0.000000
vt 0.000000 0.625000 0.000000
vt 0.062500 0.625000 0.000000
vt 0.125000 0.625000 0.000000
vt 0.187500 0.625000 0.000000
vt 0.250000 0.625000 0.000000
vt 0.312500 0.625000 0.000000
vt 0.375000 0.625000 0.000000
vt 0.437500 0.625000 0.000000
vt 0.500000 0.625000 0.000000
vt 0.562500 0.625000 0.000000
vt 0.625000 0.625000 0.000000
vt 0.687500 0.625000 0.000000
vt 0.750000 0.625000 0.000000
vt 0.812500 0.625000 0.000000
vt 0.875000 0.625000 0.000000
vt 0.937500 0.625000 0.000000
vt 1.000000 0.625000 0.000000
vt 0.000000 0.750000 0.000000
vt 0.062500 0.750000 0.000000
vt 0.125000 0.750000 0.000000
vt 0.187500 0.750000 0.000000
vt 0.250000 0.750000 0.000000
vt 0.312500 0.750000 0.000000
vt 0.375000 0.750000 0.000000
vt 0.437500 0.750000 0.000000
vt 0.500000 0.750000 0.000000
vt 0.562500 0.750000 0.000000
vt 0.625000 0.750000 0.000000
vt 0.687500 0.750000 0.000000
vt 0.750000 0.750000 0.000000
vt 0.812500 0.750000 0.000000
vt 0.875000 0.750000 0.000000
vt 0.937500 0.750000 0.000000
vt 1.000000 0.750000 0.000000
vt 0.000000 0.875000 0.000000
vt 0.062500 0.875000 0.000000
vt 0.125000 0.875000 0.000000
vt 0.187500 0.875000 0.000000
vt 0.250000 0.875000 0.000000
vt 0.312500 0.875000 0.000000
vt 0.375000 0.875000 0.000000
vt 0.437500 0.875000 0.000000
vt 0.500000 0.875000 0.000000
vt 0.562500 0.875000 0.000000
vt 0.625000 0.875000 0.000000
vt 0.687500 0.875000 0.000000
vt 0.750000 0.875000 0.000000
vt 0.812500 0.875000 0.000000
vt 0.875000 0.875000 0.000000
vt 0.937500 0.875000 0.000000
vt 1.000000 0.875000 0.000000
vt 0.000000 0.000000 0.000000
vt 0.000000 1.000000 0.000000
vt 0.062500 0.000000 0.000000
vt 0.062500 1.000000 0.000000
vt 0.125000 0.000000 0.000000
vt 0.125000 1.000000 0.000000
vt 0.187500 0.000000 0.000000
vt 0.187500 1.000000 0.000000
vt 0.250000 0.000000 0.000000
vt 0.250000 1.000000 0.000000
vt 0.312500 0.000000 0.000000
vt 0.312500 1.000000 0.000000
vt 0.375000 0.000000 0.000000
vt 0.375000 1.000000 0.000000
vt 0.437500 0.000000 0.000000
vt 0.437500 1.000000 0.000000
vt 0.500000 0.000000 0.000000
vt 0.500000 1.000000 0.000000
vt 0.562500 0.000000 0.000000
vt 0.562500 1.000000 0.000000
vt 0.625000 0.000000 0.000000
vt 0.625000 1.000000 0.000000
vt 0.687500 0.000000 0.000000
vt 0.687500 1.000000 0.000000
vt 0.750000 0.000000 0.000000
vt 0.750000 1.000000 0.000000
vt 0.812500 0.000000 0.000000
vt 0.812500 1.000000 0.000000
vt 0.875000 0.000000 0.000000
vt 0.875000 1.000000 0.000000
vt 0.937500 0.000000 0.000000
vt 0.937500 1.000000 0.000000
# 151 texture coordinates

o 球体
usemtl 材质.1
f 3/1/1 19/2/2 20/3/3 4/4/4
f 4/4/4 20/3/3 21/5/5 5/6/6
f 5/6/6 21/5/5 22/7/7 6/8/8
f 6/8/8 22/7/7 23/9/9 7/10/10
f 7/10/10 23/9/9 24/11/11 8/12/12
f 8/12/12 24/11/11 25/13/13 9/14/14
f 9/14/14 25/13/13 26/15/15 10/16/16
f 10/16/16 26/15/15 27/17/17 11/18/18
f 11/18/18 27/17/17 28/19/19 12/20/20
f 12/20/20 28/19/19 29/21/21 13/22/22
f 13/22/22 29/21/21 30/23/23 14/24/24
f 14/24/24 30/23/23 31/25/25 15/26/26
f 15/26/26 31/25/25 32/27/27 16/28/28
f 16/28/28 32/27/27 33/29/29 17/30/30
f 17/30/30 33/29/29 34/31/31 18/32/32
f 18/32/32 34/31/31 19/33/2 3/34/1
f 19/2/2 35/35/33 36/36/34 20/3/3
f 20/3/3 36/36/34 37/37/35 21/5/5
f 21/5/5 37/37/35 38/38/36 22/7/7
f 22/7/7 38/38/36 39/39/37 23/9/9
f 23/9/9 39/39/37 40/40/38 24/11/11
f 24/11/11 40/40/38 41/41/39 25/13/13
f 25/13/13 41/41/39 42/42/40 26/15/15
f 26/15/15 42/42/40 43/43/41 27/17/17
f 27/17/17 43/43/41 44/44/42 28/19/19
f 28/19/19 44/44/42 45/45/43 29/21/21
f 29/21/21 45/45/43 46/46/44 30/23/23
f 30/23/23 46/46/44 47/47/45 31/25/25
f 31/25/25 47/47/45 48/48/46 32/27/27
f 32/27/27 48/48/46 49/49/47 33/29/29
f 33/29/29 49/49/47 50/50/48 34/31/31
f 34/31/31 50/50/48 35/51/33 19/33/2
f 35/35/33 51/52/49 52/53/50 36/36/34
f 36/36/34 52/53/50 53/54/51 37/37/35
f 37/37/35 53/54/51 54/55/52 38/38/36
f 38/38/36 54/55/52 55/56/53 39/39/37
f 39/39/37 55/56/53 56/57/54 40/40/38
f 40/40/38 56/57/54 57/58/55 41/41/39
f 41/41/39 57/58/55 58/59/56 42/42/40
f 42/42/40 58/59/56 59/60/57 43/43/41
f 43/43/41 59/60/57 60/61/58 44/44/42
f 44/44/42 60/61/58 61/62/59 45/45/43
f 45/45/43 61/62/59 62/63/60 46/46/44
f 46/46/44 62/63/60 63/64/61 47/47/45
f 47/47/45 63/64/61 64/65/62 48/48/46
f 48/48/46 64/65/62 65/66/63 49/49/47
f 49/49/47 65/66/63 66/67/64 50/50/48
f 50/50/48 66/67/64 51/68/49 35/51/33
f 51/52/49 67/69/65 68/70/66 52/53/50
f 52/53/50 68/70/66 69/71/67 53/54/51
f 53/54/51 69/71/67 70/72/68 54/55/52
f 54/55/52 70/72/68 71/73/69 55/56/53
f 55/56/53 71/73/69 72/74/70 56/57/54
f 56/57/54 72/74/70 73/75/71 57/58/55
f 57/58/55 73/75/71 74/76/72 58/59/56
f 58/59/56 74/76/72 75/77/73 59/60/57
f 59/60/57 75/77/73 76/78/74 60/61/58
f 60/61/58 76/78/74 77/79/75 61/62/59
f 61/62/59 77/79/75 78/80/76 62/63/60
f 62/63/60 78/80/76 79/81/77 63/64/61
f 63/64/61 79/81/77 80/82/78 64/65/62
f 64/65/62 80/82/78 81/83/79 65/66/63
f 65/66/63 81/83/79 82/84/80 66/67/64
f 66/67/64 82/84/80 67/85/65 51/68/49
f 67/69/65 83/86/81 84/87/82 68/70/66
f 68/70/66 84/87/82 85/88/83 69/71/67
f 69/71/67 85/88/83 86/89/84 70/72/68
f 70/72/68 86/89/84 87/90/85 71/73/69
f 71/73/69 87/90/85 88/91/86 72/74/70
f 72/74/70 88/91/86 89/92/87 73/75/71
f 73/75/71 89/92/87 90/93/88 74/76/72
f 74/76/72 90/93/88 91/94/89 75/77/73
f 75/77/73 91/94/89 92/95/90 76/78/74
f 76/78/74 92/95/90 93/96/91 77/79/75
f 77/79/75 93/96/91 94/97/92 78/80/76
f 78/80/76 94/97/92 95/98/93 79/81/77
f 79/81/77 95/98/93 96/99/94 80/82/78
f 80/82/78 96/99/94 97/100/95 81/83/79
f 81/83/79 97/100/95 98/101/96 82/84/80
f 82/84/80 98/101/96 83/102/81 67/85/65
f 83/86/81 99/103/97 100/104/98 84/87/82
f 84/87/82 100/104/98 101/105/99 85/88/83
f 85/88/83 101/105/99 102/106/100 86/89/84
f 86/89/84 102/106/100 103/107/101 87/90/85
f 87/90/85 103/107/101 104/108/102 88/91/86
f 88/91/86 104/108/102 105/109/103 89/92/87
f 89/92/87 105/109/103 106/110/104 90/93/88
f 90/93/88 106/110/104 107/111/105 91/94/89
f 91/94/89 107/111/105 108/112/106 92/95/90
f 92/95/90 108/112/106 109/113/107 93/96/91
f 93/96/91 109/113/107 110/114/108 94/97/92
f 94/97/92 110/114/108 111/115/109 95/98/93
f 95/98/93 111/115/109 112/116/110 96/99/94
f 96/99/94 112/116/110 113/117/111 97/100/95
f 97/100/95 113/117/111 114/118/112 98/101/96
f 98/101/96 114/118/112 99/119/97 83/102/81
f 1/120/113 3/1/1 4/4/4
f 100/104/98 99/103/97 2/121/114
f 1/122/113 4/4/4 5/6/6
f 101/105/99 100/104/98 2/123/114
f 1/124/113 5/6/6 6/8/8
f 102/106/100 101/105/99 2/125/114
f 1/126/113 6/8/8 7/10/10
f 103/107/101 102/106/100 2/127/114
f 1/128/113 7/10/10 8/12/12
f 104/108/102 103/107/101 2/129/114
f 1/130/113 8/12/12 9/14/14
f 105/109/103 104/108/102 2/131/114
f 1/132/113 9/14/14 10/16/16
f 106/110/104 105/109/103 2/133/114
f 1/134/113 10/16/16 11/18/18
f 107/111/105 106/110/104 2/135/114
f 1/136/113 11/18/18 12/20/20
f 108/112/106 107/111/105 2/137/114
f 1/138/113 12/20/20 13/22/22
f 109/113/107 108/112/106 2/139/114
f 1/140/113 13/22/22 14/24/24
f 110/114/108 109/113/107 2/141/114
f 1/142/113 14/24/24 15/26/26
f 111/115/109 110/114/108 2/143/114
f 1/144/113 15/26/26 16/28/28
f 112/116/110 111/115/109 2/145/114
f 1/146/113 16/28/28 17/30/30
f 113/117/111 112/116/110 2/147/114
f 1/148/113 17/30/30 18/32/32
f 114/118/112 113/117/111 2/149/114
f 1/150/113 18/32/32 3/34/1
f 99/119/97 114/118/112 2/151/114

v -100.000000 -100.000000 -100.000000
v -100.000000 100.000000 -100.000000
v 100.000000 -100.000000 -100.000000
v 100.000000 100.000000 -100.000000
v 100.000000 -100.000000 100.000000
v 100.000000 100.000000 100.000000
v -100.000000 -100.000000 100.000000
v -100.000000 100.000000 100.000000
# 8 vertices

vn 0.000000 0.000000 -1.000000
vn 1.000000 0.000000 0.000000
vn 0.000000 0.000000 1.000000
vn -1.000000 0.000000 0.000000
vn 0.000000 1.000000 0.000000
vn 0.000000 -1.000000 0.000000
# 6 normals

vt 1.000000 1.000000 0.000000
vt 1.000000 0.000000 0.000000
# 2 texture coordinates

o 立方体
usemtl 材质
f 115/120/115 116/121/115 118/152/115 117/153/115
f 117/120/116 118/121/116 120/152/116 119/153/116
f 119/120/117 120/121/117 122/152/117 121/153/117
f 121/120/118 122/121/118 116/152/118 115/153/118
f 116/120/119 122/121/119 120/152/119 118/153/119
f 121/120/120 115/121/120 117/152/120 119/153/120

